<svg id="Solid" height="512" viewBox="0 0 512 512" width="512" xmlns="http://www.w3.org/2000/svg"><path d="m195.063 224h56.597l-1.334-32h-59.263z"/><path d="m326.326 176 1.334-32h-63.32l1.334 32z"/><path d="m201.063 272h52.597l-1.334-32h-55.263z"/><path d="m249.66 176-1.334-32h-63.263l4 32z"/><path d="m152 424a24 24 0 1 0 24-24 24.028 24.028 0 0 0 -24 24zm24-8a8 8 0 1 1 -8 8 8 8 0 0 1 8-8z"/><path d="m376 424a24 24 0 1 0 24-24 24.028 24.028 0 0 0 -24 24zm24-8a8 8 0 1 1 -8 8 8 8 0 0 1 8-8z"/><path d="m325.66 192h-59.32l1.334 32h56.652z"/><path d="m322.326 272 1.334-32h-55.32l1.334 32z"/><path d="m478.161 144h-55.098l-4 32h52.432z"/><path d="m400.938 192h-59.264l-1.334 32h56.598z"/><path d="m394.938 240h-55.264l-1.334 32h52.598z"/><path d="m458.161 240h-47.098l-4 32h44.432z"/><path d="m406.938 144h-63.264l-1.334 32h60.598z"/><path d="m468.161 192h-51.098l-4 32h48.432z"/><path d="m464 384h-320a16.019 16.019 0 0 1 -16-16v-16a16.019 16.019 0 0 1 16-16h294.16l3.33-16 6.667-32h-43.1l-4 32h-16.119l4-32h-51.264l-1.334 32h-16.014l1.334-32h-51.32l1.334 32h-16.014l-1.334-32h-51.264l4 32h-16.124l-4-32h-44.127l-3.765-16h45.892l-4-32h-49.422l-3.765-16h51.187l-4-32h-54.716l-3.765-16h56.481l-4-32h-60.011l-21.137-89.83a8 8 0 0 0 -7.79-6.17h-56a8 8 0 0 0 0 16h49.66l60.6 257.522a32.055 32.055 0 0 0 -22.26 30.478v16a32.036 32.036 0 0 0 32 32h320a8 8 0 0 0 0-16z"/></svg>